<mxfile host="Electron" modified="2024-05-27T14:10:56.428Z" agent="Mozilla/5.0 (Windows NT 10.0; Win64; x64) AppleWebKit/537.36 (KHTML, like Gecko) draw.io/24.4.0 Chrome/120.0.6099.109 Electron/28.1.0 Safari/537.36" etag="GPL5vlOk-muNmsg30Oo3" version="24.4.0" type="device" pages="6">
  <diagram name="DIAGRAMA GENERAL" id="ad52d381-51e7-2e0d-a935-2d0ddd2fd229">
    <mxGraphModel dx="712" dy="835" grid="0" gridSize="10" guides="1" tooltips="1" connect="1" arrows="1" fold="1" page="1" pageScale="1" pageWidth="1100" pageHeight="850" background="#190033" math="0" shadow="0">
      <root>
        <mxCell id="0" />
        <mxCell id="1" parent="0" />
        <mxCell id="2c924340bb9dbf6c-4" value="Sistema Administrativo de tienda de&amp;nbsp; computadoras" style="ellipse;whiteSpace=wrap;html=1;rounded=1;shadow=1;comic=0;labelBackgroundColor=none;strokeWidth=2;fontFamily=Verdana;fontSize=12;align=center;strokeColor=#FF9000;fillColor=#6a00ff;fontColor=#ffffff;" parent="1" vertex="1">
          <mxGeometry x="483" y="367" width="120" height="120" as="geometry" />
        </mxCell>
        <mxCell id="2c924340bb9dbf6c-31" value="&lt;div&gt;Gestion&lt;/div&gt;&lt;div&gt;de proveedores&lt;/div&gt;" style="edgeStyle=none;rounded=1;html=1;labelBackgroundColor=none;startArrow=none;startFill=0;startSize=5;endArrow=classicThin;endFill=1;endSize=5;jettySize=auto;orthogonalLoop=1;strokeColor=#B3B3B3;strokeWidth=1;fontFamily=Verdana;fontSize=12;entryX=0.5;entryY=1;entryDx=0;entryDy=0;" parent="1" source="2c924340bb9dbf6c-4" target="2c924340bb9dbf6c-51" edge="1">
          <mxGeometry relative="1" as="geometry">
            <mxPoint x="335.29030186050295" y="277.3494433721278" as="targetPoint" />
            <Array as="points">
              <mxPoint x="410" y="375" />
            </Array>
          </mxGeometry>
        </mxCell>
        <mxCell id="2c924340bb9dbf6c-32" value="Gestion&lt;div&gt;de productos&lt;/div&gt;" style="edgeStyle=none;rounded=1;html=1;labelBackgroundColor=none;startArrow=none;startFill=0;startSize=5;endArrow=classicThin;endFill=1;endSize=5;jettySize=auto;orthogonalLoop=1;strokeColor=#B3B3B3;strokeWidth=1;fontFamily=Verdana;fontSize=12;entryX=0.25;entryY=1;entryDx=0;entryDy=0;" parent="1" source="2c924340bb9dbf6c-4" target="e8nvZZPdGD74kSpBkKu5-1" edge="1">
          <mxGeometry relative="1" as="geometry">
            <mxPoint x="664.4521778202075" y="281.1927480880395" as="targetPoint" />
            <Array as="points">
              <mxPoint x="630" y="295" />
            </Array>
          </mxGeometry>
        </mxCell>
        <mxCell id="2c924340bb9dbf6c-33" value="Datos de&lt;div&gt;productos&lt;/div&gt;" style="edgeStyle=none;rounded=1;html=1;labelBackgroundColor=none;startArrow=none;startFill=0;startSize=5;endArrow=classicThin;endFill=1;endSize=5;jettySize=auto;orthogonalLoop=1;strokeColor=#B3B3B3;strokeWidth=1;fontFamily=Verdana;fontSize=12;entryX=0.5;entryY=0;entryDx=0;entryDy=0;" parent="1" source="2c924340bb9dbf6c-4" target="e8nvZZPdGD74kSpBkKu5-4" edge="1">
          <mxGeometry relative="1" as="geometry">
            <mxPoint x="644.2039851764594" y="518.8855792470431" as="targetPoint" />
            <Array as="points">
              <mxPoint x="719" y="427" />
            </Array>
          </mxGeometry>
        </mxCell>
        <mxCell id="2c924340bb9dbf6c-51" value="Proveedor" style="rounded=1;whiteSpace=wrap;html=1;shadow=1;comic=0;labelBackgroundColor=none;strokeWidth=2;fontFamily=Lucida Console;fontSize=12;align=center;strokeColor=#FF9000;fillColor=#6a00ff;fontColor=#ffffff;" parent="1" vertex="1">
          <mxGeometry x="210" y="271" width="120" height="60" as="geometry" />
        </mxCell>
        <mxCell id="2c924340bb9dbf6c-76" value="Listado&lt;div&gt;de clientes&lt;/div&gt;" style="edgeStyle=none;rounded=1;html=1;labelBackgroundColor=none;startArrow=none;startFill=0;startSize=5;endArrow=classicThin;endFill=1;endSize=5;jettySize=auto;orthogonalLoop=1;strokeColor=#B3B3B3;strokeWidth=1;fontFamily=Verdana;fontSize=12;entryX=0.5;entryY=0;entryDx=0;entryDy=0;" parent="1" source="2c924340bb9dbf6c-4" target="e8nvZZPdGD74kSpBkKu5-2" edge="1">
          <mxGeometry relative="1" as="geometry">
            <mxPoint x="452.3809523809523" y="510" as="targetPoint" />
          </mxGeometry>
        </mxCell>
        <mxCell id="e8nvZZPdGD74kSpBkKu5-1" value="Producto" style="rounded=1;whiteSpace=wrap;html=1;shadow=1;comic=0;labelBackgroundColor=none;strokeWidth=2;fontFamily=Verdana;fontSize=12;align=center;fillColor=#6a00ff;strokeColor=#FF9000;fontColor=#ffffff;" parent="1" vertex="1">
          <mxGeometry x="670" y="218" width="120" height="60" as="geometry" />
        </mxCell>
        <mxCell id="e8nvZZPdGD74kSpBkKu5-2" value="Clientes" style="rounded=1;whiteSpace=wrap;html=1;shadow=1;comic=0;labelBackgroundColor=none;strokeWidth=2;fontFamily=Lucida Console;fontSize=12;align=center;strokeColor=#FF9000;fillColor=#6a00ff;fontColor=#ffffff;" parent="1" vertex="1">
          <mxGeometry x="230" y="514" width="120" height="60" as="geometry" />
        </mxCell>
        <mxCell id="e8nvZZPdGD74kSpBkKu5-3" value="Reportes" style="rounded=1;whiteSpace=wrap;html=1;shadow=1;comic=0;labelBackgroundColor=none;strokeWidth=2;fontFamily=Verdana;fontSize=12;align=center;strokeColor=#FF9000;fillColor=#6a00ff;fontColor=#ffffff;" parent="1" vertex="1">
          <mxGeometry x="483" y="640" width="143" height="56" as="geometry" />
        </mxCell>
        <mxCell id="e8nvZZPdGD74kSpBkKu5-4" value="Graficos Estadisticos" style="rounded=1;whiteSpace=wrap;html=1;shadow=1;comic=0;labelBackgroundColor=none;strokeWidth=2;fontFamily=Verdana;fontSize=12;align=center;strokeColor=#FF9000;fillColor=#6a00ff;fontColor=#ffffff;" parent="1" vertex="1">
          <mxGeometry x="747" y="475" width="120" height="60" as="geometry" />
        </mxCell>
        <mxCell id="e8nvZZPdGD74kSpBkKu5-8" value="Formulario&lt;div&gt;de registro&lt;/div&gt;" style="edgeStyle=none;rounded=1;html=1;labelBackgroundColor=none;startArrow=none;startFill=0;startSize=5;endArrow=classicThin;endFill=1;endSize=5;jettySize=auto;orthogonalLoop=1;strokeColor=#B3B3B3;strokeWidth=1;fontFamily=Verdana;fontSize=12;exitX=1;exitY=0.5;exitDx=0;exitDy=0;" parent="1" source="2c924340bb9dbf6c-51" target="2c924340bb9dbf6c-4" edge="1">
          <mxGeometry x="0.0013" relative="1" as="geometry">
            <mxPoint x="556" y="285" as="sourcePoint" />
            <mxPoint x="330" y="180" as="targetPoint" />
            <Array as="points">
              <mxPoint x="470" y="336" />
            </Array>
            <mxPoint as="offset" />
          </mxGeometry>
        </mxCell>
        <mxCell id="e8nvZZPdGD74kSpBkKu5-10" value="Formulario&lt;div&gt;de registro&lt;/div&gt;" style="edgeStyle=none;rounded=1;html=1;labelBackgroundColor=none;startArrow=none;startFill=0;startSize=5;endArrow=classicThin;endFill=1;endSize=5;jettySize=auto;orthogonalLoop=1;strokeColor=#B3B3B3;strokeWidth=1;fontFamily=Verdana;fontSize=12;exitX=0.75;exitY=1;exitDx=0;exitDy=0;entryX=1;entryY=0;entryDx=0;entryDy=0;" parent="1" source="e8nvZZPdGD74kSpBkKu5-1" target="2c924340bb9dbf6c-4" edge="1">
          <mxGeometry x="0.3732" y="-14" relative="1" as="geometry">
            <mxPoint x="800" y="255" as="sourcePoint" />
            <mxPoint x="980" y="370" as="targetPoint" />
            <Array as="points">
              <mxPoint x="710" y="335" />
            </Array>
            <mxPoint as="offset" />
          </mxGeometry>
        </mxCell>
        <mxCell id="e8nvZZPdGD74kSpBkKu5-14" value="Busqueda&lt;div&gt;del producto&lt;/div&gt;" style="edgeStyle=none;rounded=1;html=1;labelBackgroundColor=none;startArrow=none;startFill=0;startSize=5;endArrow=classicThin;endFill=1;endSize=5;jettySize=auto;orthogonalLoop=1;strokeColor=#B3B3B3;strokeWidth=1;fontFamily=Verdana;fontSize=12;exitX=0;exitY=0.25;exitDx=0;exitDy=0;entryX=0.975;entryY=0.708;entryDx=0;entryDy=0;entryPerimeter=0;" parent="1" source="e8nvZZPdGD74kSpBkKu5-4" target="2c924340bb9dbf6c-4" edge="1">
          <mxGeometry relative="1" as="geometry">
            <mxPoint x="638" y="440" as="sourcePoint" />
            <mxPoint x="628" y="426" as="targetPoint" />
            <Array as="points">
              <mxPoint x="684" y="486" />
            </Array>
          </mxGeometry>
        </mxCell>
        <mxCell id="e8nvZZPdGD74kSpBkKu5-33" value="Listado&lt;div&gt;de personal&lt;/div&gt;" style="edgeStyle=none;rounded=1;html=1;labelBackgroundColor=none;startArrow=none;startFill=0;startSize=5;endArrow=classicThin;endFill=1;endSize=5;jettySize=auto;orthogonalLoop=1;strokeColor=#B3B3B3;strokeWidth=1;fontFamily=Verdana;fontSize=12;entryX=0;entryY=1;entryDx=0;entryDy=0;exitX=0.053;exitY=0.006;exitDx=0;exitDy=0;exitPerimeter=0;" parent="1" source="e8nvZZPdGD74kSpBkKu5-3" target="2c924340bb9dbf6c-4" edge="1">
          <mxGeometry x="0.2227" y="3" relative="1" as="geometry">
            <mxPoint x="519" y="556" as="sourcePoint" />
            <mxPoint x="323" y="623" as="targetPoint" />
            <Array as="points">
              <mxPoint x="454" y="579" />
            </Array>
            <mxPoint as="offset" />
          </mxGeometry>
        </mxCell>
        <mxCell id="e8nvZZPdGD74kSpBkKu5-34" value="Listado&lt;div&gt;de productos&lt;/div&gt;" style="edgeStyle=none;rounded=1;html=1;labelBackgroundColor=none;startArrow=none;startFill=0;startSize=5;endArrow=classicThin;endFill=1;endSize=5;jettySize=auto;orthogonalLoop=1;strokeColor=#B3B3B3;strokeWidth=1;fontFamily=Verdana;fontSize=12;entryX=0;entryY=1;entryDx=0;entryDy=0;exitX=0.25;exitY=0;exitDx=0;exitDy=0;" parent="1" source="e8nvZZPdGD74kSpBkKu5-3" edge="1">
          <mxGeometry x="-0.2565" y="2" relative="1" as="geometry">
            <mxPoint x="499" y="654" as="sourcePoint" />
            <mxPoint x="511" y="479" as="targetPoint" />
            <Array as="points" />
            <mxPoint as="offset" />
          </mxGeometry>
        </mxCell>
        <mxCell id="e8nvZZPdGD74kSpBkKu5-35" value="Listado&lt;div&gt;de clientes&lt;/div&gt;" style="edgeStyle=none;rounded=1;html=1;labelBackgroundColor=none;startArrow=none;startFill=0;startSize=5;endArrow=classicThin;endFill=1;endSize=5;jettySize=auto;orthogonalLoop=1;strokeColor=#B3B3B3;strokeWidth=1;fontFamily=Verdana;fontSize=12;entryX=0.647;entryY=1.004;entryDx=0;entryDy=0;entryPerimeter=0;exitX=0.75;exitY=0;exitDx=0;exitDy=0;" parent="1" source="e8nvZZPdGD74kSpBkKu5-3" target="2c924340bb9dbf6c-4" edge="1">
          <mxGeometry x="0.3088" relative="1" as="geometry">
            <mxPoint x="575" y="678" as="sourcePoint" />
            <mxPoint x="581" y="487" as="targetPoint" />
            <Array as="points">
              <mxPoint x="579" y="594" />
            </Array>
            <mxPoint as="offset" />
          </mxGeometry>
        </mxCell>
        <mxCell id="e8nvZZPdGD74kSpBkKu5-36" value="Listado&lt;div&gt;de productos&lt;/div&gt;" style="edgeStyle=none;rounded=1;html=1;labelBackgroundColor=none;startArrow=none;startFill=0;startSize=5;endArrow=classicThin;endFill=1;endSize=5;jettySize=auto;orthogonalLoop=1;strokeColor=#B3B3B3;strokeWidth=1;fontFamily=Verdana;fontSize=12;entryX=1;entryY=1;entryDx=0;entryDy=0;exitX=0.923;exitY=0;exitDx=0;exitDy=0;exitPerimeter=0;" parent="1" source="e8nvZZPdGD74kSpBkKu5-3" target="2c924340bb9dbf6c-4" edge="1">
          <mxGeometry x="-0.0968" y="7" relative="1" as="geometry">
            <mxPoint x="619" y="686" as="sourcePoint" />
            <mxPoint x="625" y="482" as="targetPoint" />
            <Array as="points">
              <mxPoint x="645" y="585" />
            </Array>
            <mxPoint as="offset" />
          </mxGeometry>
        </mxCell>
        <mxCell id="e8nvZZPdGD74kSpBkKu5-37" value="Usuario" style="rounded=1;whiteSpace=wrap;html=1;shadow=1;comic=0;labelBackgroundColor=none;strokeWidth=2;fontFamily=Lucida Console;fontSize=12;align=center;strokeColor=#FF9000;fillColor=#6a00ff;fontColor=#ffffff;" parent="1" vertex="1">
          <mxGeometry x="461" y="164" width="120" height="60" as="geometry" />
        </mxCell>
        <mxCell id="e8nvZZPdGD74kSpBkKu5-38" value="&lt;div&gt;Gestion&lt;/div&gt;&lt;div&gt;de usuario&lt;/div&gt;" style="edgeStyle=none;rounded=1;html=1;labelBackgroundColor=none;startArrow=none;startFill=0;startSize=5;endArrow=classicThin;endFill=1;endSize=5;jettySize=auto;orthogonalLoop=1;strokeColor=#B3B3B3;strokeWidth=1;fontFamily=Verdana;fontSize=12;entryX=0.25;entryY=1;entryDx=0;entryDy=0;exitX=0.452;exitY=0.01;exitDx=0;exitDy=0;exitPerimeter=0;" parent="1" source="2c924340bb9dbf6c-4" target="e8nvZZPdGD74kSpBkKu5-37" edge="1">
          <mxGeometry x="0.3378" y="8" relative="1" as="geometry">
            <mxPoint x="536" y="366" as="sourcePoint" />
            <mxPoint x="379" y="218" as="targetPoint" />
            <Array as="points">
              <mxPoint x="499" y="288" />
            </Array>
            <mxPoint as="offset" />
          </mxGeometry>
        </mxCell>
        <mxCell id="e8nvZZPdGD74kSpBkKu5-39" value="Formulario&lt;div&gt;de registro&lt;/div&gt;" style="edgeStyle=none;rounded=1;html=1;labelBackgroundColor=none;startArrow=none;startFill=0;startSize=5;endArrow=classicThin;endFill=1;endSize=5;jettySize=auto;orthogonalLoop=1;strokeColor=#B3B3B3;strokeWidth=1;fontFamily=Verdana;fontSize=12;exitX=0.75;exitY=1;exitDx=0;exitDy=0;entryX=0.544;entryY=0.01;entryDx=0;entryDy=0;entryPerimeter=0;" parent="1" source="e8nvZZPdGD74kSpBkKu5-37" target="2c924340bb9dbf6c-4" edge="1">
          <mxGeometry x="-0.5824" y="1" relative="1" as="geometry">
            <mxPoint x="522" y="227" as="sourcePoint" />
            <mxPoint x="697" y="306" as="targetPoint" />
            <Array as="points">
              <mxPoint x="550" y="283" />
            </Array>
            <mxPoint as="offset" />
          </mxGeometry>
        </mxCell>
      </root>
    </mxGraphModel>
  </diagram>
  <diagram id="igK0V19HxTdFgPVZ7yTX" name="REGISTRAR USUARIO">
    <mxGraphModel dx="1017" dy="1193" grid="0" gridSize="10" guides="1" tooltips="1" connect="1" arrows="1" fold="1" page="1" pageScale="1" pageWidth="1100" pageHeight="850" math="0" shadow="0">
      <root>
        <mxCell id="0" />
        <mxCell id="1" parent="0" />
        <mxCell id="CLMd0pwhaq4zq3OOFJPO-1" value="DIAGRAMA DE PROCESOS:&amp;nbsp;&lt;div&gt;&lt;span style=&quot;background-color: initial;&quot;&gt;REGISTRO DE USUARIO&lt;/span&gt;&lt;/div&gt;" style="text;html=1;align=center;verticalAlign=middle;resizable=0;points=[];autosize=1;strokeColor=none;fillColor=none;" vertex="1" parent="1">
          <mxGeometry x="7" y="94" width="179" height="41" as="geometry" />
        </mxCell>
        <mxCell id="CLMd0pwhaq4zq3OOFJPO-4" value="" style="edgeStyle=orthogonalEdgeStyle;rounded=0;orthogonalLoop=1;jettySize=auto;html=1;" edge="1" parent="1" source="CLMd0pwhaq4zq3OOFJPO-2" target="CLMd0pwhaq4zq3OOFJPO-3">
          <mxGeometry relative="1" as="geometry" />
        </mxCell>
        <mxCell id="CLMd0pwhaq4zq3OOFJPO-2" value="USUARIO:&lt;div&gt;GERENTE&lt;/div&gt;" style="whiteSpace=wrap;html=1;" vertex="1" parent="1">
          <mxGeometry x="19" y="172" width="102" height="40" as="geometry" />
        </mxCell>
        <mxCell id="CLMd0pwhaq4zq3OOFJPO-16" value="" style="edgeStyle=orthogonalEdgeStyle;rounded=0;orthogonalLoop=1;jettySize=auto;html=1;" edge="1" parent="1" source="CLMd0pwhaq4zq3OOFJPO-3" target="CLMd0pwhaq4zq3OOFJPO-15">
          <mxGeometry relative="1" as="geometry" />
        </mxCell>
        <mxCell id="CLMd0pwhaq4zq3OOFJPO-3" value="&lt;div&gt;Recopilar&lt;/div&gt;&lt;div&gt;datos&lt;/div&gt;" style="ellipse;whiteSpace=wrap;html=1;" vertex="1" parent="1">
          <mxGeometry x="209" y="152" width="80" height="80" as="geometry" />
        </mxCell>
        <mxCell id="CLMd0pwhaq4zq3OOFJPO-8" value="" style="edgeStyle=orthogonalEdgeStyle;rounded=0;orthogonalLoop=1;jettySize=auto;html=1;" edge="1" parent="1" source="CLMd0pwhaq4zq3OOFJPO-5" target="CLMd0pwhaq4zq3OOFJPO-7">
          <mxGeometry relative="1" as="geometry" />
        </mxCell>
        <mxCell id="CLMd0pwhaq4zq3OOFJPO-14" value="Con errores" style="edgeLabel;html=1;align=center;verticalAlign=middle;resizable=0;points=[];" vertex="1" connectable="0" parent="CLMd0pwhaq4zq3OOFJPO-8">
          <mxGeometry x="-0.3913" y="-4" relative="1" as="geometry">
            <mxPoint x="-1" y="14" as="offset" />
          </mxGeometry>
        </mxCell>
        <mxCell id="CLMd0pwhaq4zq3OOFJPO-12" value="" style="edgeStyle=orthogonalEdgeStyle;rounded=0;orthogonalLoop=1;jettySize=auto;html=1;" edge="1" parent="1" source="CLMd0pwhaq4zq3OOFJPO-5" target="CLMd0pwhaq4zq3OOFJPO-11">
          <mxGeometry relative="1" as="geometry" />
        </mxCell>
        <mxCell id="CLMd0pwhaq4zq3OOFJPO-13" value="Sin&amp;nbsp; errores" style="edgeLabel;html=1;align=center;verticalAlign=middle;resizable=0;points=[];" vertex="1" connectable="0" parent="CLMd0pwhaq4zq3OOFJPO-12">
          <mxGeometry x="-0.2471" y="-2" relative="1" as="geometry">
            <mxPoint x="10" y="-2" as="offset" />
          </mxGeometry>
        </mxCell>
        <mxCell id="CLMd0pwhaq4zq3OOFJPO-5" value="Verificar&lt;div&gt;datos&lt;/div&gt;" style="ellipse;whiteSpace=wrap;html=1;" vertex="1" parent="1">
          <mxGeometry x="209" y="392" width="80" height="80" as="geometry" />
        </mxCell>
        <mxCell id="CLMd0pwhaq4zq3OOFJPO-9" style="edgeStyle=orthogonalEdgeStyle;rounded=0;orthogonalLoop=1;jettySize=auto;html=1;exitX=0;exitY=0.5;exitDx=0;exitDy=0;entryX=0.5;entryY=1;entryDx=0;entryDy=0;" edge="1" parent="1" source="CLMd0pwhaq4zq3OOFJPO-7" target="CLMd0pwhaq4zq3OOFJPO-2">
          <mxGeometry relative="1" as="geometry" />
        </mxCell>
        <mxCell id="CLMd0pwhaq4zq3OOFJPO-10" value="Error al registrar&amp;nbsp;&lt;div&gt;usuario&lt;/div&gt;" style="edgeLabel;html=1;align=center;verticalAlign=middle;resizable=0;points=[];" vertex="1" connectable="0" parent="CLMd0pwhaq4zq3OOFJPO-9">
          <mxGeometry x="-0.5535" y="-4" relative="1" as="geometry">
            <mxPoint x="28" y="4" as="offset" />
          </mxGeometry>
        </mxCell>
        <mxCell id="CLMd0pwhaq4zq3OOFJPO-7" value="Comunicar&amp;nbsp;&lt;div&gt;al&amp;nbsp; empleado&lt;/div&gt;" style="ellipse;whiteSpace=wrap;html=1;" vertex="1" parent="1">
          <mxGeometry x="209" y="542" width="80" height="80" as="geometry" />
        </mxCell>
        <mxCell id="CLMd0pwhaq4zq3OOFJPO-19" value="" style="edgeStyle=orthogonalEdgeStyle;rounded=0;orthogonalLoop=1;jettySize=auto;html=1;" edge="1" parent="1" source="CLMd0pwhaq4zq3OOFJPO-11" target="CLMd0pwhaq4zq3OOFJPO-18">
          <mxGeometry relative="1" as="geometry" />
        </mxCell>
        <mxCell id="CLMd0pwhaq4zq3OOFJPO-11" value="Registrar&lt;div&gt;usuario&lt;/div&gt;" style="ellipse;whiteSpace=wrap;html=1;" vertex="1" parent="1">
          <mxGeometry x="378" y="392" width="80" height="80" as="geometry" />
        </mxCell>
        <mxCell id="CLMd0pwhaq4zq3OOFJPO-17" value="" style="edgeStyle=orthogonalEdgeStyle;rounded=0;orthogonalLoop=1;jettySize=auto;html=1;" edge="1" parent="1" source="CLMd0pwhaq4zq3OOFJPO-15" target="CLMd0pwhaq4zq3OOFJPO-5">
          <mxGeometry relative="1" as="geometry" />
        </mxCell>
        <mxCell id="CLMd0pwhaq4zq3OOFJPO-15" value="&lt;div&gt;llenar&lt;/div&gt;&lt;div&gt;campos requeridos&lt;/div&gt;" style="ellipse;whiteSpace=wrap;html=1;" vertex="1" parent="1">
          <mxGeometry x="209" y="272" width="80" height="80" as="geometry" />
        </mxCell>
        <mxCell id="CLMd0pwhaq4zq3OOFJPO-18" value="Generar&lt;div&gt;usuario y&lt;/div&gt;&lt;div&gt;contraseña&lt;/div&gt;" style="ellipse;whiteSpace=wrap;html=1;" vertex="1" parent="1">
          <mxGeometry x="480" y="390" width="80" height="80" as="geometry" />
        </mxCell>
        <mxCell id="_7xE3T3p0Oj7gWzBj8_y-2" value="DIAGRAMA DE PROCESOS:&amp;nbsp;&lt;div&gt;&lt;span style=&quot;background-color: initial;&quot;&gt;GESTION DE USUARIO&lt;/span&gt;&lt;/div&gt;" style="text;html=1;align=center;verticalAlign=middle;resizable=0;points=[];autosize=1;strokeColor=none;fillColor=none;" vertex="1" parent="1">
          <mxGeometry x="530" y="106" width="179" height="41" as="geometry" />
        </mxCell>
        <mxCell id="_7xE3T3p0Oj7gWzBj8_y-3" value="" style="edgeStyle=orthogonalEdgeStyle;rounded=0;orthogonalLoop=1;jettySize=auto;html=1;" edge="1" parent="1" source="_7xE3T3p0Oj7gWzBj8_y-4" target="_7xE3T3p0Oj7gWzBj8_y-6">
          <mxGeometry relative="1" as="geometry" />
        </mxCell>
        <mxCell id="_7xE3T3p0Oj7gWzBj8_y-4" value="USUARIO:&lt;div&gt;GERENTE&lt;/div&gt;" style="whiteSpace=wrap;html=1;" vertex="1" parent="1">
          <mxGeometry x="520" y="184" width="110" height="40" as="geometry" />
        </mxCell>
        <mxCell id="_7xE3T3p0Oj7gWzBj8_y-5" value="" style="edgeStyle=orthogonalEdgeStyle;rounded=0;orthogonalLoop=1;jettySize=auto;html=1;" edge="1" parent="1" source="_7xE3T3p0Oj7gWzBj8_y-6" target="_7xE3T3p0Oj7gWzBj8_y-18">
          <mxGeometry relative="1" as="geometry" />
        </mxCell>
        <mxCell id="_7xE3T3p0Oj7gWzBj8_y-6" value="Listar&lt;div&gt;usuarios&lt;/div&gt;" style="ellipse;whiteSpace=wrap;html=1;" vertex="1" parent="1">
          <mxGeometry x="732" y="164" width="80" height="80" as="geometry" />
        </mxCell>
        <mxCell id="_7xE3T3p0Oj7gWzBj8_y-7" value="" style="edgeStyle=orthogonalEdgeStyle;rounded=0;orthogonalLoop=1;jettySize=auto;html=1;" edge="1" parent="1" source="_7xE3T3p0Oj7gWzBj8_y-11" target="_7xE3T3p0Oj7gWzBj8_y-14">
          <mxGeometry relative="1" as="geometry" />
        </mxCell>
        <mxCell id="_7xE3T3p0Oj7gWzBj8_y-8" value="Con errores" style="edgeLabel;html=1;align=center;verticalAlign=middle;resizable=0;points=[];" vertex="1" connectable="0" parent="_7xE3T3p0Oj7gWzBj8_y-7">
          <mxGeometry x="-0.3913" y="-4" relative="1" as="geometry">
            <mxPoint x="-1" y="14" as="offset" />
          </mxGeometry>
        </mxCell>
        <mxCell id="_7xE3T3p0Oj7gWzBj8_y-9" value="" style="edgeStyle=orthogonalEdgeStyle;rounded=0;orthogonalLoop=1;jettySize=auto;html=1;" edge="1" parent="1" source="_7xE3T3p0Oj7gWzBj8_y-11" target="_7xE3T3p0Oj7gWzBj8_y-16">
          <mxGeometry relative="1" as="geometry">
            <Array as="points">
              <mxPoint x="889" y="444" />
              <mxPoint x="889" y="371" />
            </Array>
          </mxGeometry>
        </mxCell>
        <mxCell id="_7xE3T3p0Oj7gWzBj8_y-21" value="" style="edgeStyle=orthogonalEdgeStyle;rounded=0;orthogonalLoop=1;jettySize=auto;html=1;" edge="1" parent="1" source="_7xE3T3p0Oj7gWzBj8_y-11" target="_7xE3T3p0Oj7gWzBj8_y-19">
          <mxGeometry relative="1" as="geometry">
            <Array as="points">
              <mxPoint x="889" y="444" />
              <mxPoint x="889" y="511" />
            </Array>
          </mxGeometry>
        </mxCell>
        <mxCell id="_7xE3T3p0Oj7gWzBj8_y-23" value="Sin&amp;nbsp; errores" style="edgeLabel;html=1;align=center;verticalAlign=middle;resizable=0;points=[];" vertex="1" connectable="0" parent="_7xE3T3p0Oj7gWzBj8_y-21">
          <mxGeometry x="-0.4575" relative="1" as="geometry">
            <mxPoint x="-3" as="offset" />
          </mxGeometry>
        </mxCell>
        <mxCell id="_7xE3T3p0Oj7gWzBj8_y-11" value="Editar usuario" style="ellipse;whiteSpace=wrap;html=1;" vertex="1" parent="1">
          <mxGeometry x="732" y="404" width="80" height="80" as="geometry" />
        </mxCell>
        <mxCell id="_7xE3T3p0Oj7gWzBj8_y-12" style="edgeStyle=orthogonalEdgeStyle;rounded=0;orthogonalLoop=1;jettySize=auto;html=1;exitX=0;exitY=0.5;exitDx=0;exitDy=0;entryX=0.5;entryY=1;entryDx=0;entryDy=0;" edge="1" parent="1" source="_7xE3T3p0Oj7gWzBj8_y-14" target="_7xE3T3p0Oj7gWzBj8_y-4">
          <mxGeometry relative="1" as="geometry" />
        </mxCell>
        <mxCell id="_7xE3T3p0Oj7gWzBj8_y-13" value="Error al gestionar&lt;div&gt;usuario&lt;/div&gt;" style="edgeLabel;html=1;align=center;verticalAlign=middle;resizable=0;points=[];" vertex="1" connectable="0" parent="_7xE3T3p0Oj7gWzBj8_y-12">
          <mxGeometry x="-0.5535" y="-4" relative="1" as="geometry">
            <mxPoint x="40" y="4" as="offset" />
          </mxGeometry>
        </mxCell>
        <mxCell id="_7xE3T3p0Oj7gWzBj8_y-14" value="Comunicar&amp;nbsp;&lt;div&gt;al&amp;nbsp; empleado&lt;/div&gt;" style="ellipse;whiteSpace=wrap;html=1;" vertex="1" parent="1">
          <mxGeometry x="732" y="576" width="80" height="80" as="geometry" />
        </mxCell>
        <mxCell id="_7xE3T3p0Oj7gWzBj8_y-27" value="" style="edgeStyle=orthogonalEdgeStyle;rounded=0;orthogonalLoop=1;jettySize=auto;html=1;" edge="1" parent="1" source="_7xE3T3p0Oj7gWzBj8_y-16" target="_7xE3T3p0Oj7gWzBj8_y-25">
          <mxGeometry relative="1" as="geometry" />
        </mxCell>
        <mxCell id="_7xE3T3p0Oj7gWzBj8_y-16" value="&lt;div&gt;Modificar&lt;/div&gt;&lt;div&gt;usuario&lt;/div&gt;" style="ellipse;whiteSpace=wrap;html=1;" vertex="1" parent="1">
          <mxGeometry x="916" y="330" width="80" height="80" as="geometry" />
        </mxCell>
        <mxCell id="_7xE3T3p0Oj7gWzBj8_y-17" value="" style="edgeStyle=orthogonalEdgeStyle;rounded=0;orthogonalLoop=1;jettySize=auto;html=1;" edge="1" parent="1" source="_7xE3T3p0Oj7gWzBj8_y-18" target="_7xE3T3p0Oj7gWzBj8_y-11">
          <mxGeometry relative="1" as="geometry" />
        </mxCell>
        <mxCell id="_7xE3T3p0Oj7gWzBj8_y-18" value="&lt;div&gt;Seleccionar&lt;/div&gt;&lt;div&gt;usuario&lt;/div&gt;" style="ellipse;whiteSpace=wrap;html=1;" vertex="1" parent="1">
          <mxGeometry x="732" y="284" width="80" height="80" as="geometry" />
        </mxCell>
        <mxCell id="_7xE3T3p0Oj7gWzBj8_y-28" value="" style="edgeStyle=orthogonalEdgeStyle;rounded=0;orthogonalLoop=1;jettySize=auto;html=1;" edge="1" parent="1" source="_7xE3T3p0Oj7gWzBj8_y-19" target="_7xE3T3p0Oj7gWzBj8_y-25">
          <mxGeometry relative="1" as="geometry" />
        </mxCell>
        <mxCell id="_7xE3T3p0Oj7gWzBj8_y-19" value="Eliminar&lt;div&gt;Usuario&lt;/div&gt;" style="ellipse;whiteSpace=wrap;html=1;" vertex="1" parent="1">
          <mxGeometry x="916" y="470" width="80" height="80" as="geometry" />
        </mxCell>
        <mxCell id="_7xE3T3p0Oj7gWzBj8_y-25" value="Usuario&lt;div&gt;editado&lt;/div&gt;" style="ellipse;whiteSpace=wrap;html=1;" vertex="1" parent="1">
          <mxGeometry x="1043" y="402" width="80" height="80" as="geometry" />
        </mxCell>
      </root>
    </mxGraphModel>
  </diagram>
  <diagram id="5B-e0vAr80sTGSFkuA-K" name="REGISTRAR PROVEEDOR">
    <mxGraphModel dx="1017" dy="1193" grid="0" gridSize="10" guides="1" tooltips="1" connect="1" arrows="1" fold="1" page="1" pageScale="1" pageWidth="1100" pageHeight="850" math="0" shadow="0">
      <root>
        <mxCell id="0" />
        <mxCell id="1" parent="0" />
        <mxCell id="C9w-TvdWZcNq3q-nQ4rU-1" value="DIAGRAMA DE PROCESOS:&amp;nbsp;&lt;div&gt;&lt;span style=&quot;background-color: initial;&quot;&gt;REGISTRO DE PROVEEDOR&lt;/span&gt;&lt;/div&gt;" style="text;html=1;align=center;verticalAlign=middle;resizable=0;points=[];autosize=1;strokeColor=none;fillColor=none;" vertex="1" parent="1">
          <mxGeometry x="28" y="145" width="181" height="41" as="geometry" />
        </mxCell>
        <mxCell id="C9w-TvdWZcNq3q-nQ4rU-2" value="" style="edgeStyle=orthogonalEdgeStyle;rounded=0;orthogonalLoop=1;jettySize=auto;html=1;" edge="1" parent="1" source="C9w-TvdWZcNq3q-nQ4rU-3" target="C9w-TvdWZcNq3q-nQ4rU-5">
          <mxGeometry relative="1" as="geometry" />
        </mxCell>
        <mxCell id="C9w-TvdWZcNq3q-nQ4rU-3" value="USUARIO:&lt;div&gt;ADMINISTRATIVO&lt;/div&gt;" style="whiteSpace=wrap;html=1;" vertex="1" parent="1">
          <mxGeometry x="41" y="223" width="115" height="39" as="geometry" />
        </mxCell>
        <mxCell id="C9w-TvdWZcNq3q-nQ4rU-4" value="" style="edgeStyle=orthogonalEdgeStyle;rounded=0;orthogonalLoop=1;jettySize=auto;html=1;" edge="1" parent="1" source="C9w-TvdWZcNq3q-nQ4rU-5" target="C9w-TvdWZcNq3q-nQ4rU-17">
          <mxGeometry relative="1" as="geometry" />
        </mxCell>
        <mxCell id="C9w-TvdWZcNq3q-nQ4rU-5" value="&lt;div&gt;Recopilar&lt;/div&gt;&lt;div&gt;datos&lt;/div&gt;" style="ellipse;whiteSpace=wrap;html=1;" vertex="1" parent="1">
          <mxGeometry x="231" y="203" width="80" height="80" as="geometry" />
        </mxCell>
        <mxCell id="C9w-TvdWZcNq3q-nQ4rU-6" value="" style="edgeStyle=orthogonalEdgeStyle;rounded=0;orthogonalLoop=1;jettySize=auto;html=1;" edge="1" parent="1" source="C9w-TvdWZcNq3q-nQ4rU-10" target="C9w-TvdWZcNq3q-nQ4rU-13">
          <mxGeometry relative="1" as="geometry" />
        </mxCell>
        <mxCell id="C9w-TvdWZcNq3q-nQ4rU-7" value="Con errores" style="edgeLabel;html=1;align=center;verticalAlign=middle;resizable=0;points=[];" vertex="1" connectable="0" parent="C9w-TvdWZcNq3q-nQ4rU-6">
          <mxGeometry x="-0.3913" y="-4" relative="1" as="geometry">
            <mxPoint x="-1" y="14" as="offset" />
          </mxGeometry>
        </mxCell>
        <mxCell id="C9w-TvdWZcNq3q-nQ4rU-8" value="" style="edgeStyle=orthogonalEdgeStyle;rounded=0;orthogonalLoop=1;jettySize=auto;html=1;entryX=0;entryY=0.5;entryDx=0;entryDy=0;" edge="1" parent="1" source="C9w-TvdWZcNq3q-nQ4rU-10" target="C9w-TvdWZcNq3q-nQ4rU-15">
          <mxGeometry relative="1" as="geometry">
            <mxPoint x="433.0000000000002" y="483.0000000000002" as="targetPoint" />
          </mxGeometry>
        </mxCell>
        <mxCell id="C9w-TvdWZcNq3q-nQ4rU-9" value="Sin&amp;nbsp; errores" style="edgeLabel;html=1;align=center;verticalAlign=middle;resizable=0;points=[];" vertex="1" connectable="0" parent="C9w-TvdWZcNq3q-nQ4rU-8">
          <mxGeometry x="-0.2471" y="-2" relative="1" as="geometry">
            <mxPoint x="10" y="-2" as="offset" />
          </mxGeometry>
        </mxCell>
        <mxCell id="C9w-TvdWZcNq3q-nQ4rU-10" value="Verificar&lt;div&gt;datos&lt;/div&gt;" style="ellipse;whiteSpace=wrap;html=1;" vertex="1" parent="1">
          <mxGeometry x="231" y="443" width="80" height="80" as="geometry" />
        </mxCell>
        <mxCell id="C9w-TvdWZcNq3q-nQ4rU-11" style="edgeStyle=orthogonalEdgeStyle;rounded=0;orthogonalLoop=1;jettySize=auto;html=1;exitX=0;exitY=0.5;exitDx=0;exitDy=0;entryX=0.5;entryY=1;entryDx=0;entryDy=0;" edge="1" parent="1" source="C9w-TvdWZcNq3q-nQ4rU-13" target="C9w-TvdWZcNq3q-nQ4rU-3">
          <mxGeometry relative="1" as="geometry" />
        </mxCell>
        <mxCell id="C9w-TvdWZcNq3q-nQ4rU-12" value="Error al registrar&amp;nbsp;&lt;div&gt;proveedor&lt;/div&gt;" style="edgeLabel;html=1;align=center;verticalAlign=middle;resizable=0;points=[];" vertex="1" connectable="0" parent="C9w-TvdWZcNq3q-nQ4rU-11">
          <mxGeometry x="-0.5535" y="-4" relative="1" as="geometry">
            <mxPoint x="42" y="4" as="offset" />
          </mxGeometry>
        </mxCell>
        <mxCell id="C9w-TvdWZcNq3q-nQ4rU-13" value="Comunicar&amp;nbsp;&lt;div&gt;al&amp;nbsp; empleado&lt;/div&gt;" style="ellipse;whiteSpace=wrap;html=1;" vertex="1" parent="1">
          <mxGeometry x="231" y="615" width="80" height="80" as="geometry" />
        </mxCell>
        <mxCell id="C9w-TvdWZcNq3q-nQ4rU-15" value="Registrar&lt;div&gt;proveedor&lt;/div&gt;" style="ellipse;whiteSpace=wrap;html=1;" vertex="1" parent="1">
          <mxGeometry x="404" y="443" width="80" height="80" as="geometry" />
        </mxCell>
        <mxCell id="C9w-TvdWZcNq3q-nQ4rU-16" value="" style="edgeStyle=orthogonalEdgeStyle;rounded=0;orthogonalLoop=1;jettySize=auto;html=1;" edge="1" parent="1" source="C9w-TvdWZcNq3q-nQ4rU-17" target="C9w-TvdWZcNq3q-nQ4rU-10">
          <mxGeometry relative="1" as="geometry" />
        </mxCell>
        <mxCell id="C9w-TvdWZcNq3q-nQ4rU-17" value="&lt;div&gt;llenar&lt;/div&gt;&lt;div&gt;campos requeridos&lt;/div&gt;" style="ellipse;whiteSpace=wrap;html=1;" vertex="1" parent="1">
          <mxGeometry x="231" y="323" width="80" height="80" as="geometry" />
        </mxCell>
        <mxCell id="3gAIwfYW0cQUDx5SiXvq-1" value="DIAGRAMA DE PROCESOS:&amp;nbsp;&lt;div&gt;&lt;span style=&quot;background-color: initial;&quot;&gt;GESTION DE PROVEEDORES&lt;/span&gt;&lt;/div&gt;" style="text;html=1;align=center;verticalAlign=middle;resizable=0;points=[];autosize=1;strokeColor=none;fillColor=none;" vertex="1" parent="1">
          <mxGeometry x="460" y="145" width="188" height="41" as="geometry" />
        </mxCell>
        <mxCell id="3gAIwfYW0cQUDx5SiXvq-2" value="" style="edgeStyle=orthogonalEdgeStyle;rounded=0;orthogonalLoop=1;jettySize=auto;html=1;" edge="1" parent="1" source="3gAIwfYW0cQUDx5SiXvq-3" target="3gAIwfYW0cQUDx5SiXvq-5">
          <mxGeometry relative="1" as="geometry" />
        </mxCell>
        <mxCell id="3gAIwfYW0cQUDx5SiXvq-3" value="USUARIO:&lt;div&gt;ADMINISTRATIVO&lt;/div&gt;" style="whiteSpace=wrap;html=1;" vertex="1" parent="1">
          <mxGeometry x="488" y="223" width="110" height="40" as="geometry" />
        </mxCell>
        <mxCell id="3gAIwfYW0cQUDx5SiXvq-4" value="" style="edgeStyle=orthogonalEdgeStyle;rounded=0;orthogonalLoop=1;jettySize=auto;html=1;" edge="1" parent="1" source="3gAIwfYW0cQUDx5SiXvq-5" target="3gAIwfYW0cQUDx5SiXvq-18">
          <mxGeometry relative="1" as="geometry" />
        </mxCell>
        <mxCell id="3gAIwfYW0cQUDx5SiXvq-5" value="Listar&lt;div&gt;proveedores&lt;/div&gt;" style="ellipse;whiteSpace=wrap;html=1;" vertex="1" parent="1">
          <mxGeometry x="666" y="203" width="80" height="80" as="geometry" />
        </mxCell>
        <mxCell id="3gAIwfYW0cQUDx5SiXvq-6" value="" style="edgeStyle=orthogonalEdgeStyle;rounded=0;orthogonalLoop=1;jettySize=auto;html=1;" edge="1" parent="1" source="3gAIwfYW0cQUDx5SiXvq-11" target="3gAIwfYW0cQUDx5SiXvq-14">
          <mxGeometry relative="1" as="geometry" />
        </mxCell>
        <mxCell id="3gAIwfYW0cQUDx5SiXvq-7" value="Con errores" style="edgeLabel;html=1;align=center;verticalAlign=middle;resizable=0;points=[];" vertex="1" connectable="0" parent="3gAIwfYW0cQUDx5SiXvq-6">
          <mxGeometry x="-0.3913" y="-4" relative="1" as="geometry">
            <mxPoint x="-1" y="14" as="offset" />
          </mxGeometry>
        </mxCell>
        <mxCell id="3gAIwfYW0cQUDx5SiXvq-8" value="" style="edgeStyle=orthogonalEdgeStyle;rounded=0;orthogonalLoop=1;jettySize=auto;html=1;" edge="1" parent="1" source="3gAIwfYW0cQUDx5SiXvq-11" target="3gAIwfYW0cQUDx5SiXvq-16">
          <mxGeometry relative="1" as="geometry">
            <Array as="points">
              <mxPoint x="823" y="483" />
              <mxPoint x="823" y="410" />
            </Array>
          </mxGeometry>
        </mxCell>
        <mxCell id="3gAIwfYW0cQUDx5SiXvq-9" value="" style="edgeStyle=orthogonalEdgeStyle;rounded=0;orthogonalLoop=1;jettySize=auto;html=1;" edge="1" parent="1" source="3gAIwfYW0cQUDx5SiXvq-11" target="3gAIwfYW0cQUDx5SiXvq-20">
          <mxGeometry relative="1" as="geometry">
            <Array as="points">
              <mxPoint x="823" y="483" />
              <mxPoint x="823" y="550" />
            </Array>
          </mxGeometry>
        </mxCell>
        <mxCell id="3gAIwfYW0cQUDx5SiXvq-10" value="Sin&amp;nbsp;&amp;nbsp;&lt;div&gt;errores&lt;/div&gt;" style="edgeLabel;html=1;align=center;verticalAlign=middle;resizable=0;points=[];" vertex="1" connectable="0" parent="3gAIwfYW0cQUDx5SiXvq-9">
          <mxGeometry x="-0.4575" relative="1" as="geometry">
            <mxPoint x="-9" as="offset" />
          </mxGeometry>
        </mxCell>
        <mxCell id="3gAIwfYW0cQUDx5SiXvq-11" value="Editar&amp;nbsp;&lt;div&gt;proveedor&lt;/div&gt;" style="ellipse;whiteSpace=wrap;html=1;" vertex="1" parent="1">
          <mxGeometry x="666" y="443" width="80" height="80" as="geometry" />
        </mxCell>
        <mxCell id="3gAIwfYW0cQUDx5SiXvq-12" style="edgeStyle=orthogonalEdgeStyle;rounded=0;orthogonalLoop=1;jettySize=auto;html=1;exitX=0;exitY=0.5;exitDx=0;exitDy=0;entryX=0.5;entryY=1;entryDx=0;entryDy=0;" edge="1" parent="1" source="3gAIwfYW0cQUDx5SiXvq-14" target="3gAIwfYW0cQUDx5SiXvq-3">
          <mxGeometry relative="1" as="geometry" />
        </mxCell>
        <mxCell id="3gAIwfYW0cQUDx5SiXvq-13" value="Error al gestionar&lt;div&gt;&lt;span style=&quot;font-size: 12px; text-wrap: wrap; background-color: rgb(27, 29, 30);&quot;&gt;proveedor&lt;/span&gt;&lt;br&gt;&lt;/div&gt;" style="edgeLabel;html=1;align=center;verticalAlign=middle;resizable=0;points=[];" vertex="1" connectable="0" parent="3gAIwfYW0cQUDx5SiXvq-12">
          <mxGeometry x="-0.5535" y="-4" relative="1" as="geometry">
            <mxPoint x="40" y="4" as="offset" />
          </mxGeometry>
        </mxCell>
        <mxCell id="3gAIwfYW0cQUDx5SiXvq-14" value="Comunicar&amp;nbsp;&lt;div&gt;al&amp;nbsp; empleado&lt;/div&gt;" style="ellipse;whiteSpace=wrap;html=1;" vertex="1" parent="1">
          <mxGeometry x="666" y="615" width="80" height="80" as="geometry" />
        </mxCell>
        <mxCell id="3gAIwfYW0cQUDx5SiXvq-15" value="" style="edgeStyle=orthogonalEdgeStyle;rounded=0;orthogonalLoop=1;jettySize=auto;html=1;" edge="1" parent="1" source="3gAIwfYW0cQUDx5SiXvq-16" target="3gAIwfYW0cQUDx5SiXvq-21">
          <mxGeometry relative="1" as="geometry" />
        </mxCell>
        <mxCell id="3gAIwfYW0cQUDx5SiXvq-16" value="&lt;div&gt;Modificar&lt;/div&gt;&lt;div&gt;proveedor&lt;br&gt;&lt;/div&gt;" style="ellipse;whiteSpace=wrap;html=1;" vertex="1" parent="1">
          <mxGeometry x="850" y="369" width="80" height="80" as="geometry" />
        </mxCell>
        <mxCell id="3gAIwfYW0cQUDx5SiXvq-17" value="" style="edgeStyle=orthogonalEdgeStyle;rounded=0;orthogonalLoop=1;jettySize=auto;html=1;" edge="1" parent="1" source="3gAIwfYW0cQUDx5SiXvq-18" target="3gAIwfYW0cQUDx5SiXvq-11">
          <mxGeometry relative="1" as="geometry" />
        </mxCell>
        <mxCell id="3gAIwfYW0cQUDx5SiXvq-18" value="&lt;div&gt;Seleccionar&lt;/div&gt;&lt;div&gt;proveedor&lt;/div&gt;" style="ellipse;whiteSpace=wrap;html=1;" vertex="1" parent="1">
          <mxGeometry x="666" y="323" width="80" height="80" as="geometry" />
        </mxCell>
        <mxCell id="3gAIwfYW0cQUDx5SiXvq-19" value="" style="edgeStyle=orthogonalEdgeStyle;rounded=0;orthogonalLoop=1;jettySize=auto;html=1;" edge="1" parent="1" source="3gAIwfYW0cQUDx5SiXvq-20" target="3gAIwfYW0cQUDx5SiXvq-21">
          <mxGeometry relative="1" as="geometry" />
        </mxCell>
        <mxCell id="3gAIwfYW0cQUDx5SiXvq-20" value="Eliminar&lt;div&gt;proveedor&lt;br&gt;&lt;/div&gt;" style="ellipse;whiteSpace=wrap;html=1;" vertex="1" parent="1">
          <mxGeometry x="850" y="509" width="80" height="80" as="geometry" />
        </mxCell>
        <mxCell id="3gAIwfYW0cQUDx5SiXvq-21" value="&lt;div&gt;proveedor&lt;/div&gt;&lt;div&gt;editado&lt;/div&gt;" style="ellipse;whiteSpace=wrap;html=1;" vertex="1" parent="1">
          <mxGeometry x="977" y="441" width="80" height="80" as="geometry" />
        </mxCell>
      </root>
    </mxGraphModel>
  </diagram>
  <diagram id="rdpJQAiz05Wp9_bTSs5R" name="REGISTRAR PRODUCTOS">
    <mxGraphModel dx="712" dy="835" grid="0" gridSize="10" guides="1" tooltips="1" connect="1" arrows="1" fold="1" page="1" pageScale="1" pageWidth="1100" pageHeight="850" math="0" shadow="0">
      <root>
        <mxCell id="0" />
        <mxCell id="1" parent="0" />
        <mxCell id="xetzCql-yMTgmBE4sd1m-1" value="DIAGRAMA DE PROCESOS:&amp;nbsp;&lt;div&gt;&lt;span style=&quot;background-color: initial;&quot;&gt;REGISTRO DE PRODUCTOS&lt;/span&gt;&lt;/div&gt;" style="text;html=1;align=center;verticalAlign=middle;resizable=0;points=[];autosize=1;strokeColor=none;fillColor=none;" vertex="1" parent="1">
          <mxGeometry x="16" y="148" width="180" height="41" as="geometry" />
        </mxCell>
        <mxCell id="xetzCql-yMTgmBE4sd1m-2" value="" style="edgeStyle=orthogonalEdgeStyle;rounded=0;orthogonalLoop=1;jettySize=auto;html=1;" edge="1" parent="1" source="xetzCql-yMTgmBE4sd1m-3" target="xetzCql-yMTgmBE4sd1m-5">
          <mxGeometry relative="1" as="geometry" />
        </mxCell>
        <mxCell id="xetzCql-yMTgmBE4sd1m-3" value="USUARIO:&lt;div&gt;ADMINISTRATIVO&lt;/div&gt;" style="whiteSpace=wrap;html=1;" vertex="1" parent="1">
          <mxGeometry x="28" y="226" width="102" height="40" as="geometry" />
        </mxCell>
        <mxCell id="xetzCql-yMTgmBE4sd1m-4" value="" style="edgeStyle=orthogonalEdgeStyle;rounded=0;orthogonalLoop=1;jettySize=auto;html=1;" edge="1" parent="1" source="xetzCql-yMTgmBE4sd1m-5" target="xetzCql-yMTgmBE4sd1m-17">
          <mxGeometry relative="1" as="geometry" />
        </mxCell>
        <mxCell id="xetzCql-yMTgmBE4sd1m-5" value="&lt;div&gt;Recopilar&lt;/div&gt;&lt;div&gt;datos&lt;/div&gt;" style="ellipse;whiteSpace=wrap;html=1;" vertex="1" parent="1">
          <mxGeometry x="218" y="206" width="80" height="80" as="geometry" />
        </mxCell>
        <mxCell id="xetzCql-yMTgmBE4sd1m-6" value="" style="edgeStyle=orthogonalEdgeStyle;rounded=0;orthogonalLoop=1;jettySize=auto;html=1;" edge="1" parent="1" source="xetzCql-yMTgmBE4sd1m-10" target="xetzCql-yMTgmBE4sd1m-13">
          <mxGeometry relative="1" as="geometry" />
        </mxCell>
        <mxCell id="xetzCql-yMTgmBE4sd1m-7" value="Con errores" style="edgeLabel;html=1;align=center;verticalAlign=middle;resizable=0;points=[];" vertex="1" connectable="0" parent="xetzCql-yMTgmBE4sd1m-6">
          <mxGeometry x="-0.3913" y="-4" relative="1" as="geometry">
            <mxPoint x="-1" y="14" as="offset" />
          </mxGeometry>
        </mxCell>
        <mxCell id="xetzCql-yMTgmBE4sd1m-8" value="" style="edgeStyle=orthogonalEdgeStyle;rounded=0;orthogonalLoop=1;jettySize=auto;html=1;" edge="1" parent="1" source="xetzCql-yMTgmBE4sd1m-10" target="xetzCql-yMTgmBE4sd1m-15">
          <mxGeometry relative="1" as="geometry" />
        </mxCell>
        <mxCell id="xetzCql-yMTgmBE4sd1m-9" value="Sin&amp;nbsp;&amp;nbsp;&lt;div&gt;errores&lt;/div&gt;" style="edgeLabel;html=1;align=center;verticalAlign=middle;resizable=0;points=[];" vertex="1" connectable="0" parent="xetzCql-yMTgmBE4sd1m-8">
          <mxGeometry x="-0.2471" y="-2" relative="1" as="geometry">
            <mxPoint x="10" y="-2" as="offset" />
          </mxGeometry>
        </mxCell>
        <mxCell id="xetzCql-yMTgmBE4sd1m-10" value="Verificar&lt;div&gt;datos&lt;/div&gt;" style="ellipse;whiteSpace=wrap;html=1;" vertex="1" parent="1">
          <mxGeometry x="218" y="446" width="80" height="80" as="geometry" />
        </mxCell>
        <mxCell id="xetzCql-yMTgmBE4sd1m-11" style="edgeStyle=orthogonalEdgeStyle;rounded=0;orthogonalLoop=1;jettySize=auto;html=1;exitX=0;exitY=0.5;exitDx=0;exitDy=0;entryX=0.5;entryY=1;entryDx=0;entryDy=0;" edge="1" parent="1" source="xetzCql-yMTgmBE4sd1m-13" target="xetzCql-yMTgmBE4sd1m-3">
          <mxGeometry relative="1" as="geometry" />
        </mxCell>
        <mxCell id="xetzCql-yMTgmBE4sd1m-12" value="Error al registrar&amp;nbsp;&lt;div&gt;producto&lt;/div&gt;" style="edgeLabel;html=1;align=center;verticalAlign=middle;resizable=0;points=[];" vertex="1" connectable="0" parent="xetzCql-yMTgmBE4sd1m-11">
          <mxGeometry x="-0.5535" y="-4" relative="1" as="geometry">
            <mxPoint x="28" y="4" as="offset" />
          </mxGeometry>
        </mxCell>
        <mxCell id="xetzCql-yMTgmBE4sd1m-13" value="Comunicar&amp;nbsp;&lt;div&gt;al&amp;nbsp; empleado&lt;/div&gt;" style="ellipse;whiteSpace=wrap;html=1;" vertex="1" parent="1">
          <mxGeometry x="218" y="618" width="80" height="80" as="geometry" />
        </mxCell>
        <mxCell id="xetzCql-yMTgmBE4sd1m-15" value="Registrar&lt;div&gt;producto&lt;/div&gt;" style="ellipse;whiteSpace=wrap;html=1;" vertex="1" parent="1">
          <mxGeometry x="380" y="446" width="80" height="80" as="geometry" />
        </mxCell>
        <mxCell id="xetzCql-yMTgmBE4sd1m-16" value="" style="edgeStyle=orthogonalEdgeStyle;rounded=0;orthogonalLoop=1;jettySize=auto;html=1;" edge="1" parent="1" source="xetzCql-yMTgmBE4sd1m-17" target="xetzCql-yMTgmBE4sd1m-10">
          <mxGeometry relative="1" as="geometry" />
        </mxCell>
        <mxCell id="xetzCql-yMTgmBE4sd1m-17" value="&lt;div&gt;llenar&lt;/div&gt;&lt;div&gt;campos requeridos&lt;/div&gt;" style="ellipse;whiteSpace=wrap;html=1;" vertex="1" parent="1">
          <mxGeometry x="218" y="326" width="80" height="80" as="geometry" />
        </mxCell>
        <mxCell id="hcM1iF0LJkJ5GWj6uZ2e-1" value="DIAGRAMA DE PROCESOS:&amp;nbsp;&lt;div&gt;&lt;span style=&quot;background-color: initial;&quot;&gt;GESTION DE PRODUCTOS&lt;/span&gt;&lt;/div&gt;" style="text;html=1;align=center;verticalAlign=middle;resizable=0;points=[];autosize=1;strokeColor=none;fillColor=none;" vertex="1" parent="1">
          <mxGeometry x="465" y="145" width="179" height="41" as="geometry" />
        </mxCell>
        <mxCell id="hcM1iF0LJkJ5GWj6uZ2e-2" value="" style="edgeStyle=orthogonalEdgeStyle;rounded=0;orthogonalLoop=1;jettySize=auto;html=1;" edge="1" parent="1" source="hcM1iF0LJkJ5GWj6uZ2e-3" target="hcM1iF0LJkJ5GWj6uZ2e-5">
          <mxGeometry relative="1" as="geometry" />
        </mxCell>
        <mxCell id="hcM1iF0LJkJ5GWj6uZ2e-3" value="USUARIO:&lt;div&gt;ADMINISTRATIVO&lt;/div&gt;" style="whiteSpace=wrap;html=1;" vertex="1" parent="1">
          <mxGeometry x="488" y="223" width="110" height="40" as="geometry" />
        </mxCell>
        <mxCell id="hcM1iF0LJkJ5GWj6uZ2e-4" value="" style="edgeStyle=orthogonalEdgeStyle;rounded=0;orthogonalLoop=1;jettySize=auto;html=1;" edge="1" parent="1" source="hcM1iF0LJkJ5GWj6uZ2e-5" target="hcM1iF0LJkJ5GWj6uZ2e-18">
          <mxGeometry relative="1" as="geometry" />
        </mxCell>
        <mxCell id="hcM1iF0LJkJ5GWj6uZ2e-5" value="Listar&lt;div&gt;productos&lt;/div&gt;" style="ellipse;whiteSpace=wrap;html=1;" vertex="1" parent="1">
          <mxGeometry x="666" y="203" width="80" height="80" as="geometry" />
        </mxCell>
        <mxCell id="hcM1iF0LJkJ5GWj6uZ2e-6" value="" style="edgeStyle=orthogonalEdgeStyle;rounded=0;orthogonalLoop=1;jettySize=auto;html=1;" edge="1" parent="1" source="hcM1iF0LJkJ5GWj6uZ2e-11" target="hcM1iF0LJkJ5GWj6uZ2e-14">
          <mxGeometry relative="1" as="geometry" />
        </mxCell>
        <mxCell id="hcM1iF0LJkJ5GWj6uZ2e-7" value="Con errores" style="edgeLabel;html=1;align=center;verticalAlign=middle;resizable=0;points=[];" vertex="1" connectable="0" parent="hcM1iF0LJkJ5GWj6uZ2e-6">
          <mxGeometry x="-0.3913" y="-4" relative="1" as="geometry">
            <mxPoint x="-1" y="14" as="offset" />
          </mxGeometry>
        </mxCell>
        <mxCell id="hcM1iF0LJkJ5GWj6uZ2e-8" value="" style="edgeStyle=orthogonalEdgeStyle;rounded=0;orthogonalLoop=1;jettySize=auto;html=1;" edge="1" parent="1" source="hcM1iF0LJkJ5GWj6uZ2e-11" target="hcM1iF0LJkJ5GWj6uZ2e-16">
          <mxGeometry relative="1" as="geometry">
            <Array as="points">
              <mxPoint x="823" y="483" />
              <mxPoint x="823" y="410" />
            </Array>
          </mxGeometry>
        </mxCell>
        <mxCell id="hcM1iF0LJkJ5GWj6uZ2e-9" value="" style="edgeStyle=orthogonalEdgeStyle;rounded=0;orthogonalLoop=1;jettySize=auto;html=1;" edge="1" parent="1" source="hcM1iF0LJkJ5GWj6uZ2e-11" target="hcM1iF0LJkJ5GWj6uZ2e-20">
          <mxGeometry relative="1" as="geometry">
            <Array as="points">
              <mxPoint x="823" y="483" />
              <mxPoint x="823" y="550" />
            </Array>
          </mxGeometry>
        </mxCell>
        <mxCell id="hcM1iF0LJkJ5GWj6uZ2e-10" value="Sin&amp;nbsp;&amp;nbsp;&lt;div&gt;errores&lt;/div&gt;" style="edgeLabel;html=1;align=center;verticalAlign=middle;resizable=0;points=[];" vertex="1" connectable="0" parent="hcM1iF0LJkJ5GWj6uZ2e-9">
          <mxGeometry x="-0.4575" relative="1" as="geometry">
            <mxPoint x="-9" as="offset" />
          </mxGeometry>
        </mxCell>
        <mxCell id="hcM1iF0LJkJ5GWj6uZ2e-11" value="Editar&amp;nbsp;&lt;div&gt;producto&lt;/div&gt;" style="ellipse;whiteSpace=wrap;html=1;" vertex="1" parent="1">
          <mxGeometry x="666" y="443" width="80" height="80" as="geometry" />
        </mxCell>
        <mxCell id="hcM1iF0LJkJ5GWj6uZ2e-12" style="edgeStyle=orthogonalEdgeStyle;rounded=0;orthogonalLoop=1;jettySize=auto;html=1;exitX=0;exitY=0.5;exitDx=0;exitDy=0;entryX=0.5;entryY=1;entryDx=0;entryDy=0;" edge="1" parent="1" source="hcM1iF0LJkJ5GWj6uZ2e-14" target="hcM1iF0LJkJ5GWj6uZ2e-3">
          <mxGeometry relative="1" as="geometry" />
        </mxCell>
        <mxCell id="hcM1iF0LJkJ5GWj6uZ2e-13" value="Error al gestionar&lt;div&gt;&lt;span style=&quot;background-color: rgb(27, 29, 30); font-size: 12px; text-wrap: wrap;&quot;&gt;productos&lt;/span&gt;&lt;/div&gt;" style="edgeLabel;html=1;align=center;verticalAlign=middle;resizable=0;points=[];" vertex="1" connectable="0" parent="hcM1iF0LJkJ5GWj6uZ2e-12">
          <mxGeometry x="-0.5535" y="-4" relative="1" as="geometry">
            <mxPoint x="40" y="4" as="offset" />
          </mxGeometry>
        </mxCell>
        <mxCell id="hcM1iF0LJkJ5GWj6uZ2e-14" value="Comunicar&amp;nbsp;&lt;div&gt;al&amp;nbsp; empleado&lt;/div&gt;" style="ellipse;whiteSpace=wrap;html=1;" vertex="1" parent="1">
          <mxGeometry x="666" y="615" width="80" height="80" as="geometry" />
        </mxCell>
        <mxCell id="hcM1iF0LJkJ5GWj6uZ2e-15" value="" style="edgeStyle=orthogonalEdgeStyle;rounded=0;orthogonalLoop=1;jettySize=auto;html=1;" edge="1" parent="1" source="hcM1iF0LJkJ5GWj6uZ2e-16" target="hcM1iF0LJkJ5GWj6uZ2e-21">
          <mxGeometry relative="1" as="geometry" />
        </mxCell>
        <mxCell id="hcM1iF0LJkJ5GWj6uZ2e-16" value="&lt;div&gt;Modificar&lt;/div&gt;&lt;div&gt;producto&lt;br&gt;&lt;/div&gt;" style="ellipse;whiteSpace=wrap;html=1;" vertex="1" parent="1">
          <mxGeometry x="850" y="369" width="80" height="80" as="geometry" />
        </mxCell>
        <mxCell id="hcM1iF0LJkJ5GWj6uZ2e-17" value="" style="edgeStyle=orthogonalEdgeStyle;rounded=0;orthogonalLoop=1;jettySize=auto;html=1;" edge="1" parent="1" source="hcM1iF0LJkJ5GWj6uZ2e-18" target="hcM1iF0LJkJ5GWj6uZ2e-11">
          <mxGeometry relative="1" as="geometry" />
        </mxCell>
        <mxCell id="hcM1iF0LJkJ5GWj6uZ2e-18" value="&lt;div&gt;Seleccionar&lt;/div&gt;&lt;div&gt;categoria&lt;/div&gt;" style="ellipse;whiteSpace=wrap;html=1;" vertex="1" parent="1">
          <mxGeometry x="666" y="323" width="80" height="80" as="geometry" />
        </mxCell>
        <mxCell id="hcM1iF0LJkJ5GWj6uZ2e-19" value="" style="edgeStyle=orthogonalEdgeStyle;rounded=0;orthogonalLoop=1;jettySize=auto;html=1;" edge="1" parent="1" source="hcM1iF0LJkJ5GWj6uZ2e-20" target="hcM1iF0LJkJ5GWj6uZ2e-21">
          <mxGeometry relative="1" as="geometry" />
        </mxCell>
        <mxCell id="hcM1iF0LJkJ5GWj6uZ2e-20" value="Eliminar&lt;div&gt;producto&lt;br&gt;&lt;/div&gt;" style="ellipse;whiteSpace=wrap;html=1;" vertex="1" parent="1">
          <mxGeometry x="850" y="509" width="80" height="80" as="geometry" />
        </mxCell>
        <mxCell id="hcM1iF0LJkJ5GWj6uZ2e-21" value="&lt;div&gt;producto&lt;br&gt;&lt;/div&gt;&lt;div&gt;editado&lt;/div&gt;" style="ellipse;whiteSpace=wrap;html=1;" vertex="1" parent="1">
          <mxGeometry x="977" y="441" width="80" height="80" as="geometry" />
        </mxCell>
      </root>
    </mxGraphModel>
  </diagram>
  <diagram id="gfOyeJA3CNAd8cSUTUZO" name="REGISTRO DE CLIENTES">
    <mxGraphModel dx="1095" dy="1285" grid="0" gridSize="10" guides="1" tooltips="1" connect="1" arrows="1" fold="1" page="1" pageScale="1" pageWidth="1100" pageHeight="850" math="0" shadow="0">
      <root>
        <mxCell id="0" />
        <mxCell id="1" parent="0" />
        <mxCell id="rjRYzss6SzelLPfROH67-1" value="DIAGRAMA DE PROCESOS:&amp;nbsp;&lt;div&gt;GESTIONAR CLIENTES&lt;/div&gt;" style="text;html=1;align=center;verticalAlign=middle;resizable=0;points=[];autosize=1;strokeColor=none;fillColor=none;" vertex="1" parent="1">
          <mxGeometry x="617" y="108" width="179" height="41" as="geometry" />
        </mxCell>
        <mxCell id="rjRYzss6SzelLPfROH67-2" value="" style="edgeStyle=orthogonalEdgeStyle;rounded=0;orthogonalLoop=1;jettySize=auto;html=1;" edge="1" parent="1" source="rjRYzss6SzelLPfROH67-3" target="rjRYzss6SzelLPfROH67-5">
          <mxGeometry relative="1" as="geometry" />
        </mxCell>
        <mxCell id="rjRYzss6SzelLPfROH67-3" value="USUARIO:&lt;div&gt;VENDEDOR&lt;/div&gt;" style="whiteSpace=wrap;html=1;" vertex="1" parent="1">
          <mxGeometry x="629" y="186" width="102" height="40" as="geometry" />
        </mxCell>
        <mxCell id="rjRYzss6SzelLPfROH67-4" value="" style="edgeStyle=orthogonalEdgeStyle;rounded=0;orthogonalLoop=1;jettySize=auto;html=1;" edge="1" parent="1" source="rjRYzss6SzelLPfROH67-5" target="rjRYzss6SzelLPfROH67-17">
          <mxGeometry relative="1" as="geometry" />
        </mxCell>
        <mxCell id="rjRYzss6SzelLPfROH67-5" value="Listar&lt;div&gt;clientes&lt;/div&gt;" style="ellipse;whiteSpace=wrap;html=1;" vertex="1" parent="1">
          <mxGeometry x="819" y="166" width="80" height="80" as="geometry" />
        </mxCell>
        <mxCell id="rjRYzss6SzelLPfROH67-6" value="" style="edgeStyle=orthogonalEdgeStyle;rounded=0;orthogonalLoop=1;jettySize=auto;html=1;" edge="1" parent="1" source="rjRYzss6SzelLPfROH67-10" target="rjRYzss6SzelLPfROH67-13">
          <mxGeometry relative="1" as="geometry" />
        </mxCell>
        <mxCell id="rjRYzss6SzelLPfROH67-7" value="Con errores" style="edgeLabel;html=1;align=center;verticalAlign=middle;resizable=0;points=[];" vertex="1" connectable="0" parent="rjRYzss6SzelLPfROH67-6">
          <mxGeometry x="-0.3913" y="-4" relative="1" as="geometry">
            <mxPoint x="-1" y="14" as="offset" />
          </mxGeometry>
        </mxCell>
        <mxCell id="rjRYzss6SzelLPfROH67-8" value="" style="edgeStyle=orthogonalEdgeStyle;rounded=0;orthogonalLoop=1;jettySize=auto;html=1;" edge="1" parent="1" source="rjRYzss6SzelLPfROH67-10" target="rjRYzss6SzelLPfROH67-15">
          <mxGeometry relative="1" as="geometry" />
        </mxCell>
        <mxCell id="rjRYzss6SzelLPfROH67-9" value="Sin&amp;nbsp; errores" style="edgeLabel;html=1;align=center;verticalAlign=middle;resizable=0;points=[];" vertex="1" connectable="0" parent="rjRYzss6SzelLPfROH67-8">
          <mxGeometry x="-0.2471" y="-2" relative="1" as="geometry">
            <mxPoint x="10" y="-2" as="offset" />
          </mxGeometry>
        </mxCell>
        <mxCell id="rjRYzss6SzelLPfROH67-10" value="Verificar&lt;div&gt;datos&lt;/div&gt;" style="ellipse;whiteSpace=wrap;html=1;" vertex="1" parent="1">
          <mxGeometry x="819" y="406" width="80" height="80" as="geometry" />
        </mxCell>
        <mxCell id="rjRYzss6SzelLPfROH67-11" style="edgeStyle=orthogonalEdgeStyle;rounded=0;orthogonalLoop=1;jettySize=auto;html=1;exitX=0;exitY=0.5;exitDx=0;exitDy=0;entryX=0.5;entryY=1;entryDx=0;entryDy=0;" edge="1" parent="1" source="rjRYzss6SzelLPfROH67-13" target="rjRYzss6SzelLPfROH67-3">
          <mxGeometry relative="1" as="geometry" />
        </mxCell>
        <mxCell id="rjRYzss6SzelLPfROH67-12" value="Error al gestionar&lt;div&gt;cliente&lt;/div&gt;" style="edgeLabel;html=1;align=center;verticalAlign=middle;resizable=0;points=[];" vertex="1" connectable="0" parent="rjRYzss6SzelLPfROH67-11">
          <mxGeometry x="-0.5535" y="-4" relative="1" as="geometry">
            <mxPoint x="45" y="4" as="offset" />
          </mxGeometry>
        </mxCell>
        <mxCell id="rjRYzss6SzelLPfROH67-13" value="Comunicar&amp;nbsp;&lt;div&gt;al&amp;nbsp; empleado&lt;/div&gt;" style="ellipse;whiteSpace=wrap;html=1;" vertex="1" parent="1">
          <mxGeometry x="819" y="578" width="80" height="80" as="geometry" />
        </mxCell>
        <mxCell id="rjRYzss6SzelLPfROH67-15" value="Modificar&lt;div&gt;cliente&lt;/div&gt;" style="ellipse;whiteSpace=wrap;html=1;" vertex="1" parent="1">
          <mxGeometry x="987" y="406" width="80" height="80" as="geometry" />
        </mxCell>
        <mxCell id="rjRYzss6SzelLPfROH67-16" value="" style="edgeStyle=orthogonalEdgeStyle;rounded=0;orthogonalLoop=1;jettySize=auto;html=1;" edge="1" parent="1" source="rjRYzss6SzelLPfROH67-17" target="rjRYzss6SzelLPfROH67-10">
          <mxGeometry relative="1" as="geometry" />
        </mxCell>
        <mxCell id="rjRYzss6SzelLPfROH67-17" value="&lt;div&gt;Seleccionar&lt;/div&gt;&lt;div&gt;cliente&lt;/div&gt;" style="ellipse;whiteSpace=wrap;html=1;" vertex="1" parent="1">
          <mxGeometry x="819" y="286" width="80" height="80" as="geometry" />
        </mxCell>
        <mxCell id="DGsVsM7eJjHQt2CibN9_-1" value="DIAGRAMA DE PROCESOS:&amp;nbsp;&lt;div&gt;REGISTRAR CLIENTES&lt;/div&gt;" style="text;html=1;align=center;verticalAlign=middle;resizable=0;points=[];autosize=1;strokeColor=none;fillColor=none;" vertex="1" parent="1">
          <mxGeometry x="87" y="108" width="179" height="41" as="geometry" />
        </mxCell>
        <mxCell id="XgvjZUTqCij36XQHWzaU-1" value="" style="edgeStyle=orthogonalEdgeStyle;rounded=0;orthogonalLoop=1;jettySize=auto;html=1;" edge="1" parent="1" source="XgvjZUTqCij36XQHWzaU-2" target="XgvjZUTqCij36XQHWzaU-4">
          <mxGeometry relative="1" as="geometry" />
        </mxCell>
        <mxCell id="XgvjZUTqCij36XQHWzaU-2" value="USUARIO:&lt;div&gt;ADMINISTRATIVO&lt;/div&gt;" style="whiteSpace=wrap;html=1;" vertex="1" parent="1">
          <mxGeometry x="76" y="186" width="115" height="39" as="geometry" />
        </mxCell>
        <mxCell id="XgvjZUTqCij36XQHWzaU-3" value="" style="edgeStyle=orthogonalEdgeStyle;rounded=0;orthogonalLoop=1;jettySize=auto;html=1;" edge="1" parent="1" source="XgvjZUTqCij36XQHWzaU-4" target="XgvjZUTqCij36XQHWzaU-15">
          <mxGeometry relative="1" as="geometry" />
        </mxCell>
        <mxCell id="XgvjZUTqCij36XQHWzaU-4" value="&lt;div&gt;Recopilar&lt;/div&gt;&lt;div&gt;datos&lt;/div&gt;" style="ellipse;whiteSpace=wrap;html=1;" vertex="1" parent="1">
          <mxGeometry x="266" y="166" width="80" height="80" as="geometry" />
        </mxCell>
        <mxCell id="XgvjZUTqCij36XQHWzaU-5" value="" style="edgeStyle=orthogonalEdgeStyle;rounded=0;orthogonalLoop=1;jettySize=auto;html=1;" edge="1" parent="1" source="XgvjZUTqCij36XQHWzaU-9" target="XgvjZUTqCij36XQHWzaU-12">
          <mxGeometry relative="1" as="geometry" />
        </mxCell>
        <mxCell id="XgvjZUTqCij36XQHWzaU-6" value="Con errores" style="edgeLabel;html=1;align=center;verticalAlign=middle;resizable=0;points=[];" vertex="1" connectable="0" parent="XgvjZUTqCij36XQHWzaU-5">
          <mxGeometry x="-0.3913" y="-4" relative="1" as="geometry">
            <mxPoint x="-1" y="14" as="offset" />
          </mxGeometry>
        </mxCell>
        <mxCell id="XgvjZUTqCij36XQHWzaU-7" value="" style="edgeStyle=orthogonalEdgeStyle;rounded=0;orthogonalLoop=1;jettySize=auto;html=1;entryX=0;entryY=0.5;entryDx=0;entryDy=0;" edge="1" parent="1" source="XgvjZUTqCij36XQHWzaU-9" target="XgvjZUTqCij36XQHWzaU-13">
          <mxGeometry relative="1" as="geometry">
            <mxPoint x="468.0000000000002" y="446.0000000000002" as="targetPoint" />
          </mxGeometry>
        </mxCell>
        <mxCell id="XgvjZUTqCij36XQHWzaU-8" value="Sin&amp;nbsp; errores" style="edgeLabel;html=1;align=center;verticalAlign=middle;resizable=0;points=[];" vertex="1" connectable="0" parent="XgvjZUTqCij36XQHWzaU-7">
          <mxGeometry x="-0.2471" y="-2" relative="1" as="geometry">
            <mxPoint x="10" y="-2" as="offset" />
          </mxGeometry>
        </mxCell>
        <mxCell id="XgvjZUTqCij36XQHWzaU-9" value="Verificar&lt;div&gt;datos&lt;/div&gt;" style="ellipse;whiteSpace=wrap;html=1;" vertex="1" parent="1">
          <mxGeometry x="266" y="406" width="80" height="80" as="geometry" />
        </mxCell>
        <mxCell id="XgvjZUTqCij36XQHWzaU-10" style="edgeStyle=orthogonalEdgeStyle;rounded=0;orthogonalLoop=1;jettySize=auto;html=1;exitX=0;exitY=0.5;exitDx=0;exitDy=0;entryX=0.5;entryY=1;entryDx=0;entryDy=0;" edge="1" parent="1" source="XgvjZUTqCij36XQHWzaU-12" target="XgvjZUTqCij36XQHWzaU-2">
          <mxGeometry relative="1" as="geometry" />
        </mxCell>
        <mxCell id="XgvjZUTqCij36XQHWzaU-11" value="Error al registrar&amp;nbsp;&lt;div&gt;cliente&lt;/div&gt;" style="edgeLabel;html=1;align=center;verticalAlign=middle;resizable=0;points=[];" vertex="1" connectable="0" parent="XgvjZUTqCij36XQHWzaU-10">
          <mxGeometry x="-0.5535" y="-4" relative="1" as="geometry">
            <mxPoint x="42" y="4" as="offset" />
          </mxGeometry>
        </mxCell>
        <mxCell id="XgvjZUTqCij36XQHWzaU-12" value="Comunicar&amp;nbsp;&lt;div&gt;al&amp;nbsp; empleado&lt;/div&gt;" style="ellipse;whiteSpace=wrap;html=1;" vertex="1" parent="1">
          <mxGeometry x="266" y="578" width="80" height="80" as="geometry" />
        </mxCell>
        <mxCell id="XgvjZUTqCij36XQHWzaU-13" value="Registrar&lt;div&gt;cliente&lt;/div&gt;" style="ellipse;whiteSpace=wrap;html=1;" vertex="1" parent="1">
          <mxGeometry x="441" y="406" width="80" height="80" as="geometry" />
        </mxCell>
        <mxCell id="XgvjZUTqCij36XQHWzaU-14" value="" style="edgeStyle=orthogonalEdgeStyle;rounded=0;orthogonalLoop=1;jettySize=auto;html=1;" edge="1" parent="1" source="XgvjZUTqCij36XQHWzaU-15" target="XgvjZUTqCij36XQHWzaU-9">
          <mxGeometry relative="1" as="geometry" />
        </mxCell>
        <mxCell id="XgvjZUTqCij36XQHWzaU-15" value="&lt;div&gt;llenar&lt;/div&gt;&lt;div&gt;campos requeridos&lt;/div&gt;" style="ellipse;whiteSpace=wrap;html=1;" vertex="1" parent="1">
          <mxGeometry x="266" y="286" width="80" height="80" as="geometry" />
        </mxCell>
      </root>
    </mxGraphModel>
  </diagram>
  <diagram id="dJj_9NkggbaLBSBSRirT" name="REPORTES Y GRAFICOS">
    <mxGraphModel dx="619" dy="726" grid="0" gridSize="10" guides="1" tooltips="1" connect="1" arrows="1" fold="1" page="1" pageScale="1" pageWidth="1100" pageHeight="850" math="0" shadow="0">
      <root>
        <mxCell id="0" />
        <mxCell id="1" parent="0" />
        <mxCell id="1yNNQc1fFjtFiNGuk5Al-1" value="DIAGRAMA DE PROCESOS:&amp;nbsp;&lt;div&gt;REPORTES&lt;/div&gt;" style="text;html=1;align=center;verticalAlign=middle;resizable=0;points=[];autosize=1;strokeColor=none;fillColor=none;" vertex="1" parent="1">
          <mxGeometry x="87" y="108" width="179" height="41" as="geometry" />
        </mxCell>
        <mxCell id="1yNNQc1fFjtFiNGuk5Al-2" value="" style="edgeStyle=orthogonalEdgeStyle;rounded=0;orthogonalLoop=1;jettySize=auto;html=1;" edge="1" parent="1" source="1yNNQc1fFjtFiNGuk5Al-3" target="1yNNQc1fFjtFiNGuk5Al-5">
          <mxGeometry relative="1" as="geometry" />
        </mxCell>
        <mxCell id="1yNNQc1fFjtFiNGuk5Al-3" value="USUARIO:&lt;div&gt;ADMINISTRATIVO&lt;/div&gt;" style="whiteSpace=wrap;html=1;" vertex="1" parent="1">
          <mxGeometry x="76" y="186" width="115" height="39" as="geometry" />
        </mxCell>
        <mxCell id="1yNNQc1fFjtFiNGuk5Al-4" value="" style="edgeStyle=orthogonalEdgeStyle;rounded=0;orthogonalLoop=1;jettySize=auto;html=1;" edge="1" parent="1" source="1yNNQc1fFjtFiNGuk5Al-5" target="1yNNQc1fFjtFiNGuk5Al-16">
          <mxGeometry relative="1" as="geometry" />
        </mxCell>
        <mxCell id="1yNNQc1fFjtFiNGuk5Al-5" value="&lt;div&gt;Recopilar&lt;/div&gt;&lt;div&gt;datos&lt;/div&gt;" style="ellipse;whiteSpace=wrap;html=1;" vertex="1" parent="1">
          <mxGeometry x="266" y="166" width="80" height="80" as="geometry" />
        </mxCell>
        <mxCell id="1yNNQc1fFjtFiNGuk5Al-6" value="" style="edgeStyle=orthogonalEdgeStyle;rounded=0;orthogonalLoop=1;jettySize=auto;html=1;" edge="1" parent="1" source="1yNNQc1fFjtFiNGuk5Al-10" target="1yNNQc1fFjtFiNGuk5Al-13">
          <mxGeometry relative="1" as="geometry" />
        </mxCell>
        <mxCell id="1yNNQc1fFjtFiNGuk5Al-7" value="Con errores" style="edgeLabel;html=1;align=center;verticalAlign=middle;resizable=0;points=[];" vertex="1" connectable="0" parent="1yNNQc1fFjtFiNGuk5Al-6">
          <mxGeometry x="-0.3913" y="-4" relative="1" as="geometry">
            <mxPoint x="-1" y="14" as="offset" />
          </mxGeometry>
        </mxCell>
        <mxCell id="1yNNQc1fFjtFiNGuk5Al-8" value="" style="edgeStyle=orthogonalEdgeStyle;rounded=0;orthogonalLoop=1;jettySize=auto;html=1;entryX=0;entryY=0.5;entryDx=0;entryDy=0;" edge="1" parent="1" source="1yNNQc1fFjtFiNGuk5Al-10" target="1yNNQc1fFjtFiNGuk5Al-14">
          <mxGeometry relative="1" as="geometry">
            <mxPoint x="468.5000000000002" y="542.0000000000002" as="targetPoint" />
          </mxGeometry>
        </mxCell>
        <mxCell id="1yNNQc1fFjtFiNGuk5Al-9" value="Sin&amp;nbsp; errores" style="edgeLabel;html=1;align=center;verticalAlign=middle;resizable=0;points=[];" vertex="1" connectable="0" parent="1yNNQc1fFjtFiNGuk5Al-8">
          <mxGeometry x="-0.2471" y="-2" relative="1" as="geometry">
            <mxPoint x="10" y="-2" as="offset" />
          </mxGeometry>
        </mxCell>
        <mxCell id="1yNNQc1fFjtFiNGuk5Al-10" value="Generar el reporte" style="ellipse;whiteSpace=wrap;html=1;" vertex="1" parent="1">
          <mxGeometry x="266" y="507" width="80" height="80" as="geometry" />
        </mxCell>
        <mxCell id="1yNNQc1fFjtFiNGuk5Al-11" style="edgeStyle=orthogonalEdgeStyle;rounded=0;orthogonalLoop=1;jettySize=auto;html=1;exitX=0;exitY=0.5;exitDx=0;exitDy=0;entryX=0.5;entryY=1;entryDx=0;entryDy=0;" edge="1" parent="1" source="1yNNQc1fFjtFiNGuk5Al-13" target="1yNNQc1fFjtFiNGuk5Al-3">
          <mxGeometry relative="1" as="geometry" />
        </mxCell>
        <mxCell id="1yNNQc1fFjtFiNGuk5Al-12" value="Error al generar&lt;div&gt;el reporte&lt;/div&gt;" style="edgeLabel;html=1;align=center;verticalAlign=middle;resizable=0;points=[];" vertex="1" connectable="0" parent="1yNNQc1fFjtFiNGuk5Al-11">
          <mxGeometry x="-0.5535" y="-4" relative="1" as="geometry">
            <mxPoint x="42" y="4" as="offset" />
          </mxGeometry>
        </mxCell>
        <mxCell id="1yNNQc1fFjtFiNGuk5Al-13" value="Comunicar&amp;nbsp;&lt;div&gt;al&amp;nbsp; empleado&lt;/div&gt;" style="ellipse;whiteSpace=wrap;html=1;" vertex="1" parent="1">
          <mxGeometry x="266.5" y="649" width="80" height="80" as="geometry" />
        </mxCell>
        <mxCell id="1yNNQc1fFjtFiNGuk5Al-14" value="Guardar el&lt;div&gt;reporte&lt;/div&gt;" style="ellipse;whiteSpace=wrap;html=1;" vertex="1" parent="1">
          <mxGeometry x="421" y="507" width="80" height="80" as="geometry" />
        </mxCell>
        <mxCell id="1yNNQc1fFjtFiNGuk5Al-24" value="" style="edgeStyle=orthogonalEdgeStyle;rounded=0;orthogonalLoop=1;jettySize=auto;html=1;" edge="1" parent="1" source="1yNNQc1fFjtFiNGuk5Al-16" target="1yNNQc1fFjtFiNGuk5Al-18">
          <mxGeometry relative="1" as="geometry" />
        </mxCell>
        <mxCell id="1yNNQc1fFjtFiNGuk5Al-16" value="Seleccionar&amp;nbsp;&lt;div&gt;categoria&lt;/div&gt;" style="ellipse;whiteSpace=wrap;html=1;" vertex="1" parent="1">
          <mxGeometry x="266.5" y="280" width="80" height="80" as="geometry" />
        </mxCell>
        <mxCell id="1yNNQc1fFjtFiNGuk5Al-25" value="" style="edgeStyle=orthogonalEdgeStyle;rounded=0;orthogonalLoop=1;jettySize=auto;html=1;" edge="1" parent="1" source="1yNNQc1fFjtFiNGuk5Al-18" target="1yNNQc1fFjtFiNGuk5Al-10">
          <mxGeometry relative="1" as="geometry" />
        </mxCell>
        <mxCell id="1yNNQc1fFjtFiNGuk5Al-18" value="Previzualizar" style="ellipse;whiteSpace=wrap;html=1;" vertex="1" parent="1">
          <mxGeometry x="266.5" y="389" width="80" height="80" as="geometry" />
        </mxCell>
        <mxCell id="H562SsFN0GpImHN6Qdtm-1" value="DIAGRAMA DE PROCESOS:&amp;nbsp;&lt;div&gt;GRAFICOS ESTADISTICOS&lt;/div&gt;" style="text;html=1;align=center;verticalAlign=middle;resizable=0;points=[];autosize=1;strokeColor=none;fillColor=none;" vertex="1" parent="1">
          <mxGeometry x="546" y="108" width="179" height="41" as="geometry" />
        </mxCell>
        <mxCell id="H562SsFN0GpImHN6Qdtm-2" value="" style="edgeStyle=orthogonalEdgeStyle;rounded=0;orthogonalLoop=1;jettySize=auto;html=1;" edge="1" parent="1" source="H562SsFN0GpImHN6Qdtm-3" target="H562SsFN0GpImHN6Qdtm-5">
          <mxGeometry relative="1" as="geometry" />
        </mxCell>
        <mxCell id="H562SsFN0GpImHN6Qdtm-3" value="USUARIO:&lt;div&gt;ADMINISTRATIVO&lt;/div&gt;" style="whiteSpace=wrap;html=1;" vertex="1" parent="1">
          <mxGeometry x="575" y="186" width="115" height="39" as="geometry" />
        </mxCell>
        <mxCell id="H562SsFN0GpImHN6Qdtm-4" value="" style="edgeStyle=orthogonalEdgeStyle;rounded=0;orthogonalLoop=1;jettySize=auto;html=1;" edge="1" parent="1" source="H562SsFN0GpImHN6Qdtm-5" target="H562SsFN0GpImHN6Qdtm-16">
          <mxGeometry relative="1" as="geometry" />
        </mxCell>
        <mxCell id="H562SsFN0GpImHN6Qdtm-5" value="&lt;div&gt;Recopilar&lt;/div&gt;&lt;div&gt;datos&lt;/div&gt;" style="ellipse;whiteSpace=wrap;html=1;" vertex="1" parent="1">
          <mxGeometry x="765" y="166" width="80" height="80" as="geometry" />
        </mxCell>
        <mxCell id="H562SsFN0GpImHN6Qdtm-6" value="" style="edgeStyle=orthogonalEdgeStyle;rounded=0;orthogonalLoop=1;jettySize=auto;html=1;" edge="1" parent="1" source="H562SsFN0GpImHN6Qdtm-10" target="H562SsFN0GpImHN6Qdtm-13">
          <mxGeometry relative="1" as="geometry" />
        </mxCell>
        <mxCell id="H562SsFN0GpImHN6Qdtm-7" value="Con errores" style="edgeLabel;html=1;align=center;verticalAlign=middle;resizable=0;points=[];" vertex="1" connectable="0" parent="H562SsFN0GpImHN6Qdtm-6">
          <mxGeometry x="-0.3913" y="-4" relative="1" as="geometry">
            <mxPoint x="-1" y="14" as="offset" />
          </mxGeometry>
        </mxCell>
        <mxCell id="H562SsFN0GpImHN6Qdtm-20" value="" style="edgeStyle=orthogonalEdgeStyle;rounded=0;orthogonalLoop=1;jettySize=auto;html=1;" edge="1" parent="1" source="H562SsFN0GpImHN6Qdtm-10" target="H562SsFN0GpImHN6Qdtm-14">
          <mxGeometry relative="1" as="geometry" />
        </mxCell>
        <mxCell id="H562SsFN0GpImHN6Qdtm-10" value="Vista&amp;nbsp;&lt;div&gt;de la grafica&lt;/div&gt;" style="ellipse;whiteSpace=wrap;html=1;" vertex="1" parent="1">
          <mxGeometry x="765" y="507" width="80" height="80" as="geometry" />
        </mxCell>
        <mxCell id="H562SsFN0GpImHN6Qdtm-11" style="edgeStyle=orthogonalEdgeStyle;rounded=0;orthogonalLoop=1;jettySize=auto;html=1;exitX=0;exitY=0.5;exitDx=0;exitDy=0;entryX=0.5;entryY=1;entryDx=0;entryDy=0;" edge="1" parent="1" source="H562SsFN0GpImHN6Qdtm-13" target="H562SsFN0GpImHN6Qdtm-3">
          <mxGeometry relative="1" as="geometry" />
        </mxCell>
        <mxCell id="H562SsFN0GpImHN6Qdtm-12" value="Error al generar&lt;div&gt;el reporte&lt;/div&gt;" style="edgeLabel;html=1;align=center;verticalAlign=middle;resizable=0;points=[];" vertex="1" connectable="0" parent="H562SsFN0GpImHN6Qdtm-11">
          <mxGeometry x="-0.5535" y="-4" relative="1" as="geometry">
            <mxPoint x="42" y="4" as="offset" />
          </mxGeometry>
        </mxCell>
        <mxCell id="H562SsFN0GpImHN6Qdtm-13" value="Comunicar&amp;nbsp;&lt;div&gt;al&amp;nbsp; empleado&lt;/div&gt;" style="ellipse;whiteSpace=wrap;html=1;" vertex="1" parent="1">
          <mxGeometry x="765.5" y="649" width="80" height="80" as="geometry" />
        </mxCell>
        <mxCell id="H562SsFN0GpImHN6Qdtm-14" value="FIN" style="ellipse;whiteSpace=wrap;html=1;" vertex="1" parent="1">
          <mxGeometry x="920" y="507" width="80" height="80" as="geometry" />
        </mxCell>
        <mxCell id="H562SsFN0GpImHN6Qdtm-15" value="" style="edgeStyle=orthogonalEdgeStyle;rounded=0;orthogonalLoop=1;jettySize=auto;html=1;" edge="1" parent="1" source="H562SsFN0GpImHN6Qdtm-16" target="H562SsFN0GpImHN6Qdtm-18">
          <mxGeometry relative="1" as="geometry" />
        </mxCell>
        <mxCell id="H562SsFN0GpImHN6Qdtm-16" value="Seleccionar&amp;nbsp;&lt;div&gt;categoria&lt;/div&gt;" style="ellipse;whiteSpace=wrap;html=1;" vertex="1" parent="1">
          <mxGeometry x="765.5" y="280" width="80" height="80" as="geometry" />
        </mxCell>
        <mxCell id="H562SsFN0GpImHN6Qdtm-17" value="" style="edgeStyle=orthogonalEdgeStyle;rounded=0;orthogonalLoop=1;jettySize=auto;html=1;" edge="1" parent="1" source="H562SsFN0GpImHN6Qdtm-18" target="H562SsFN0GpImHN6Qdtm-10">
          <mxGeometry relative="1" as="geometry" />
        </mxCell>
        <mxCell id="H562SsFN0GpImHN6Qdtm-18" value="Seleccionar&lt;div&gt;producto&lt;/div&gt;" style="ellipse;whiteSpace=wrap;html=1;" vertex="1" parent="1">
          <mxGeometry x="765.5" y="389" width="80" height="80" as="geometry" />
        </mxCell>
      </root>
    </mxGraphModel>
  </diagram>
</mxfile>
